<?xml version="1.0" encoding="utf-8"?>
<!-- Generator: Adobe Illustrator 21.0.2, SVG Export Plug-In . SVG Version: 6.00 Build 0)  -->
<svg version="1.1" id="Layer_1" xmlns="http://www.w3.org/2000/svg" xmlns:xlink="http://www.w3.org/1999/xlink" x="0px" y="0px"
	 viewBox="0 0 612 792" style="enable-background:new 0 0 612 792;" xml:space="preserve">
<style type="text/css">
	.st0{fill:#FEFEFE;}
	.st1{fill:#020303;}
	.st2{fill:#010101;}
	.st3{fill:#020202;}
	.st4{fill:#EFC9CA;}
	.st5{fill:#E9B4B5;}
	.st6{fill:#030304;}
	.st7{fill:#AAADAD;}
	.st8{fill:#E6B6B7;}
	.st9{fill:#050506;}
	.st10{fill:#050607;}
	.st11{fill:#03090A;}
	.st12{fill:#080909;}
	.st13{fill:#05090C;}
	.st14{fill:#0A0B0D;}
	.st15{fill:#020203;}
	.st16{fill:#A70509;}
	.st17{fill:#D99395;}
	.st18{fill:#060606;}
	.st19{fill:#BF0105;}
	.st20{fill:#8C0D10;}
	.st21{fill:#7E0407;}
	.st22{fill:#890004;}
	.st23{fill:#ECB8BA;}
	.st24{fill:#860205;}
</style>
<g>
	<path class="st0" d="M46.4,402.5c0-89.8,0-179.7-0.1-269.5c0-3.3,0.7-4,4-4c177.7,0.1,355.5,0.1,533.2,0c3.3,0,4,0.6,4,4
		c-0.1,179.7-0.1,359.3,0,539c0,3.3-0.6,4-4,4c-177.7-0.1-355.5-0.1-533.2,0c-3.3,0-4-0.6-4-4C46.5,582.2,46.4,492.3,46.4,402.5z"/>
	<path class="st1" d="M99.6,455.2c-0.6-1.3-1.2-2.5-1.9-3.8c-1.5-2.9-5.1-6.2,1.7-7.4c1.3-0.2,1-2.5,1.1-3.9c-0.5-2-0.4-4.1-0.8-6.1
		c2.6-1.7,6.1-2.1,6-6.7c-0.1-2.5,3-0.7,4.7-1c6.7,1.2,13.4,1.8,20.2,1.4c1.3-1.5,2.2-3.2,2-5.3c-2.2-3.5-2.3-7.4,0.3-10.3
		c2.7-3,2.5-7.9,6.9-9.5c0.4-1.1,3.7-0.4,1.8-2.9c-1.2-2.3-3.4-1.4-5.2-1.5c-6.7-0.3-7.4-1.1-7.3-7.6c0.1-3.7,0.9-7.8-3.5-10
		c-1.6-0.8-1.2-2.4-0.9-3.9c0.9-4.5,1.7-9.1,2.5-13.7c0.8-4.2,1.8-8-2.1-11.4c-1.4-1.2-1-3,0.9-3.9c0.5,0,0.9,0.1,1.2,0.5
		c-0.1-0.5-0.7-0.5-0.9-1c-0.3-0.6-0.6-1.4-0.2-1.9c6.1-7.6,2.1-16.5,3-24.7c0.3-3,0-6.1,0-9.1c0-1.7,0.1-3.2,2.3-3.6
		c1,0.7,0.6,2,1.2,2.6c-0.4-0.8-0.3-2-1.3-2.7c-1.7-6.4-1.2-12.9,0.5-19.1c0.8-2.8,4.7-2.9,7.1-4.4c1-0.6,2.3-0.7,2.3-2.3
		c-1.9-1.6-3.6-3.1-3-6c0.4-1.6-0.6-2.8-2.1-3.3c-4.1-1.5-5-4.9-4.3-8.5c0.6-3.2-1.3-6.7,1.1-9.7c-1.4-0.7-1.7-2.5-3.2-3.2
		c-2-0.9-3.1-2.2-2.3-4.5c0.1-0.2,0.3-0.4,0.4-0.5c-0.1,0.1-0.3,0.3-0.5,0.5c-3.4,1.1-2.4-1.7-2.4-3c-0.1-5.7,0.3-11.9-2.7-16.6
		c-3-4.5-2.1-7.9-0.4-11.9c0.7-1.8,1.4-3.5,2-5.4c0.6-2.2,1.4-4.2,1.2-6.5c-0.1-1.1-0.1-2.6,0.9-3.1c5-2.6,3.6-7.5,3.6-11.4
		c0-3.9,0.3-8-1.4-11.9c-0.9-2-0.3-4.1,1.8-5.5c1-0.7,2.3-1.3,2.6-2.7c0.7-3.8-1.9-7-1.9-10.6c0.3-0.1,0.6-0.4,0.8-0.3
		c2.3,0.4,4.8,3.2,6.4,1.8c1.6-1.4-0.5-4.4-0.8-6.7c-0.1-1.2-0.8-2.4-0.1-3.6c1-0.2,1.5,0.5,2.2,0.8c6.2,3.2,6.2,3.2,6.2-3.6
		c0.2,0,0.4-0.1,0.5-0.1c1.6,4.6,5.7,7.5,8,11.5c3.7,6.2,8,12.2,12.1,18c6.7,9.5,13.6,18.9,20.5,28.4c3.3,4.6,6.8,9.1,9.5,14.1
		c0.4,1.7,0,3.8,2.3,4.5c5,1.9,5.8,7.3,8.8,10.8c4.8,5.7,7.6,12.8,12.6,18.4c0.8,0.9,0.8,2.1,0.1,3.1c1.2,2.8-0.9,7.3,4.3,7.9
		c6.5,5.4,8.6,13.2,11.4,20.6c1.6,4.3,1.6,8.8,1.9,13.2c0.3,3.4-0.7,6.3-3.5,8.5c-0.3,0.3-0.5,0.7-0.9,0.9c0.4-0.1,0.5-0.6,1-0.7
		c2.6,0.3,2.8,2.2,2.9,4.3c0.3,7.2-0.5,14.4-1.3,21.6c-0.8,7.7-0.1,15.4-0.3,23.1c-0.3,14,0.8,28,4.2,41.6c1.3,5.3,2.1,11,6.1,15.4
		c0.2,0.2,0.3,0.6,0.3,0.9c0.2,7.5,6.3,10.8,10.8,15.1c4.9,4.7,11.3,5.5,17.6,6.5c2.2,0.4,4.6,0.5,5.4,3.2c0.1,0.3,0.3,0.8,0.3,0.8
		c1.9-5.9,3.9,0,5.8-0.1c2.8-0.1,5.4-1.5,8.4-1.4c8.9,0.1,15.9-4.5,22.4-10.1c3.5-3,7.3-5.7,11.3-8c0.5-0.3,1.3-0.3,1.6-0.9
		c6.1-11.2,16.7-14.7,28.3-16.1c3.2-0.4,6.5-1,9.6-0.6c5.8,0.7,11.4,2.5,16.8,4.6c2.6,1,3.2,3,1,4.7c-3.5,2.7-7.1,5.5-12.1,3.9
		c-0.1,0-0.2-0.2-0.4-0.2c0,0,0.1,0.2,0.2,0.4c-2.1,4.4-6.7,3.7-10.3,4.8c-1.2,0.4-2.8,0.5-4.2,0.5c-5.2,0.1-9.7,3-14.6,4.2
		c-1.8,0.4-4.1-0.2-4.7,3.1c-0.4,2.3-4,3.1-5.9,5.1c-5.6,5.9-8.6,14-16.2,18.4c-4.8,2.8-9.9,3.6-15.1,4.2c-4.7,0.5-9.4,0.5-14.2,1.2
		c-7.8,1-15.6,1.1-23.4,0.3c-1.5-0.2-1.7,1-2.8,1.1c-2.6,0.3-5,1.6-7.8,1.6c-1.2,0-3.3,2.6-5.7,2.4c-4.4-0.3-7.7,3.3-12.2,2.9
		c-4.6-0.4-9.4,0.2-13.9,0.8c-3.9,0.5-6.5,4.2-9,6.9c-6.4,6.8-12.7,13.7-20.9,18.3c-6.4,3.6-13,6.8-18.5,12
		c-2.2,2.1-4.8,1.3-6.8-1.1c3.6,3,3.5,3.7,0.2,6.5c-5.2,4.3-10.2,8.8-15.7,12.7c-0.4,0.3-0.9,0.4-1.4,0.3c-2.5-0.9-1.9-3.1-1.9-4.9
		c0-3.1-0.6-6.1,0.2-9.2c0.5-3.6,4.2-5.2,5.3-8.5c0.6-1.6,1.7-2.9,3.1-3.6c5.5-2.8,7.1-8.7,11-12.8c2.2-2.3,1.4-4.2-1.5-5.5
		c-7.4-3.3-12.5-1.5-16.9,6.3c-5.6,4.9-9.9,11.7-18.5,12.4c-1.3,0.1-2.4,0.7-3.3-0.6c-3.5-5.3-9-6-14.4-5.1c-3.2,0.5-2.5-1.2-3-2.6
		c0.1-0.4,0.3-0.8,0.6-1.1c2.9-2.3-0.8-4.6-0.1-6.9c2.5-5.7,7-8.5,12.9-9.2c-0.6-0.1,0.3-0.1,0.1-0.1c-6.9-0.7-1.7-2.6-0.5-4.2
		c-3.9-1-8.5-0.5-11.4-4.9c-0.1,1.5,1.5,3-0.5,3.7c-2.4,0.8-5.1,1.2-6.9-0.5C102.2,461,98.1,459.7,99.6,455.2z"/>
	<path d="M218.7,254.9c0.2-0.2,0.4-0.5,0.6-0.7c-3.4-2.8-4.4-7.2-7.3-10.5c-1.6-1.9-2.9-4.9-4.6-7.3c-2.3-3.2-4.5-6.4-6.3-9.8
		c-0.8-1.5-1.9-2.6-3.7-2.7c-0.9-1.5-2-3-1.9-4.8c-5.1-4.6-7.5-11-11.5-16.4c-5.5-7.4-9.7-16-16.2-22.4c-3.6-3.6-3.7-8.7-7.6-11.7
		c-3.7-2.8-5.1-7.4-7.7-11c-0.7-1-1.4-2.1-3-2.1c-2.8,0-0.3-1.8-0.8-2.7c-0.7-1.4-1.2-2-2.3-0.5c-1.1-1.8,0.6-4.2-1.2-5.8
		c0.5-2.4,1.1-1,1.8-0.1c12.3,17.4,24.7,34.7,37,52.1c13.4,19,27.4,37.7,39.7,57.5c6.9,11,13.1,22.5,14.7,35.8
		c1.1,8.5-0.4,17-0.7,25.5c-0.7,18.2-1.9,36.4-0.5,54.6c1.2,15.7,4.4,30.7,11.9,44.8c4.8,9,12,13.6,21.9,15.3
		c10.5,1.7,20.8,4.5,31.5,1.3c4.2-1.2,7.8-3.2,11.2-6c7.6-6.2,14.7-12.8,22.2-19c13-10.8,28.4-11.9,44-5.9
		c7.3,2.8,14.9,3.3,22.5,4.5c0.8,0.5,1.6,0.3,2.4,0.2c0.4,0.1,0.8,0.2,1.2,0.5c1.1,0.9,1.8,1.9,1.9,3.4c0.1,1.8,0.8,3.8-0.7,5.4
		c-3.2,2.7-6.9,4.7-9.9,7.6c-7.5,7.3-10.7,16.6-13.3,26.4c-0.9,3.3,0.7,4.4,3.8,4.4c8.2,0,16.4,0,24.6,0c14,0,28,0,42,0
		c5.3,0,5.6-0.4,4.4-5.5c-3.1-13.4-9.6-24.5-21.7-31.7c-0.8-0.5-1.6-1.1-2.2-1.9c-0.6-3.6-0.5-6.7,4.2-7.2
		c16.8,8.6,25.5,22.9,29.1,40.9c0.6,3.3,0.2,6.9,4.8,8.2c2.1,0.6,2.3,3.4,1.7,5.5c-4.3,14.1-8.7,28.3-13.2,42.4
		c-1.4,4.4-5,6.7-9.6,6.7c-20.8,0.1-41.6,0.1-62.4,0c-4.9,0-8.3-2.6-9.7-7.3c-4-13.7-8-27.5-11.9-41.3c-1.1-3.8,0.3-6.7,4.3-7.1
		c3-0.3,3-1.9,3.3-4c2.5-15.4,8.6-28.9,21.1-38.9c0.1-1.7,0.1-1.7-3-1.2c-10.1-1-18.3,5.1-27.6,7.1c-4.5,1-9,2.5-13.5,3.3
		c-10,1.7-17.1,7.2-22.2,15.8c-7.3,12.1-18.2,18.1-32.2,18.6c-11.4,0.4-22.9,1-34.3,1.3c-3.1,0.1-5.5,1.5-8.2,2.4
		c-7.9,2.7-16.1,4.3-24.4,4.9c-8.1,0.6-15.2,3.4-20.7,9.8c-7.3,8.5-16.1,14.8-26.1,20c-7.8,4.1-14,11.1-21.3,16.4
		c-6,4.3-8.4,10-8.7,17.2c-0.4,8.4-1.7,16.7-2,25c-0.3,10.3-5,19.1-8.5,28.4c-1.6,4.2-3.2,8.3-5.1,13c-1.9-3.8-1.8-7.5-2.8-10.9
		c-0.4-1.3-0.5-3.5-2.6-2.4c-3.3,1.8-3.3,0-3.7-2.4c-0.6-3.8-0.6-7.6-0.7-11.5c-0.1-1.9,0.9-4.1-1.7-5.5c-1.5-0.8-0.4-1.7,0.6-2.4
		c14.3-10.8,17-26.7,18.5-43c0-0.5,0.1-1,0-1.5c-1-8.8,0.5-16.3,8.5-22c4.4-3.2,7.4-8.4,11.1-12.6c1.7-2,1.9-2.7-1-3.8
		c-5.1-2-9.4-2.1-13,2.7c-0.7,1-2.1,1.4-3.1,2.2c-0.2-0.2-0.7-0.5-0.6-0.7c0.7-4.7,8.4-9.7,12.8-8.2c1.7,0.6,3.5,0.7,5.3,1.6
		c3.8,1.8,4.8,3.8,2.3,7c-2,2.7-5.1,4.4-5.4,8.5c-0.1,1.6-3.7,2-5.3,3.7c-1.4,1.5-3.3,2.5-4.3,4.4c-1.3,2.5-4.3,3.7-4.8,6.8
		c0,3.9,0,7.9,0,11.8c0,1.4,0.2,2.6,1.9,2.7c0.6,0.5,0.6,1.1,0.4,1.8c-1.1,1.4-1.4,2.8-0.6,4.4c0.9,1.6,0.9,3.2,0.3,4.4
		c1.6-2.1-0.8-4.8,0-7.4c0.2-0.7,0.7-1.3,0.9-2.1c0.1-0.5,0.7-0.9,0.7-1.5c-0.5,0.4-1,0.6-1.6,0.3c-0.2-3.1,2.9-3.5,4.4-4.4
		c4.6-2.7,8-6.7,11.9-10c4.2-3.5-2.3-2.2-2.4-4.5c1-1.3,2.3-3,3.9,0.3c0.6,1.3,1.8,1,2.9,0.4c0.6-0.3,1.3-0.4,1.7-0.9
		c5.1-6.1,12.5-8.6,19-12.6c7.2-4.5,13.4-10.1,18.9-16.6c1.6-1.9,2.8-4.3,5.8-4.5c0.7,0,1-0.4,0.7-1.4c-0.8-2.2,0.9-3.1,2.4-2.8
		c5.6,1.1,11.1-0.9,16.7-0.2c1.4,0.2,3.2,0.4,4.2-0.7c2.4-2.8,5.5-2.3,8.5-2.3c0.3,0,0.9,0.2,0.9,0.1c2.4-5,7.4-2,11-3.6
		c2-0.9,0-1.8,0.7-3c2.3,2.1,4.9,2,7.9,2.1c9.3,0.2,18.4-1.6,27.7-1.5c0.2,0,0.3,0.1,0.5,0.1c1.4-0.3,3-0.7,4.3-0.8
		c3.9-0.4,8.4-0.3,12-2.7c1.7-1.1,3.5-2.1,5.2-3.2c1-0.7,3-1.2,1.5-3.2c-0.3-0.3-0.6-0.8,0-1.2c4.6-3.1,9.6-9.1,11.1-13.3
		c0.4-1.1,0.9-0.5,1.6-0.6c4-0.5,5.5-3.3,4.3-7.6c1.6,0.6,2.2,3.4,4.6,1.1c2.4-2.3,7.8,0.5,9.2-4.6c3.3,3.1,6.6-0.2,9.8-0.2
		c3.8,0,8-0.4,10.5-4.3c5.3,0.3,9.7-1.4,13.8-6.3c-4.1-0.2-6.5-5-10.8-1.8c-0.2,0.1-0.7,0-0.9-0.2c-5.5-7-12.9-2.7-19.2-2.4
		c-8.5,0.5-16.1,4.6-22.4,10.6c-1.1,1.1-3,2-2.1,4.2c0.1,0.3-0.5,1.2-1,1.4c-10.7,4.5-18,14.3-29,18.5c-0.8,0.3-1-0.1-1.5-0.2
		c-4.6-0.9-8.8,0.9-13.2,1.6c-0.8,0.1-1.4,1.5-2.2-0.1c-0.6-1.1-1.2-2.7-2.7-2.3c-1.9,0.5,0.2,2.6-1.4,3.9
		c-0.9-6.4-6.4-5.7-10.4-6.2c-7-0.8-12.7-3.7-17.3-8.7c-2-2.2-3.2-5.1-6.5-6.1c-0.8-0.2-3.5-2.2-0.5-3.8c-0.9-1.5-1.9-3.7-2.2-4.6
		c-1.9-6.7-5.7-12.7-6.2-19.8c-0.4-5.9-1.3-11.9-2.2-17.8c-1.3-8.7-0.1-17.3-0.6-25.9c-0.7-10.4,0.6-20.7,1.4-31
		c0.2-3,2.8-8.1-2.4-10.4c6.3-10.7,1.7-20.9-2.3-30.7c-1.7-4.1-3.5-8.8-7.4-11.8C222.2,260.6,219.8,258.1,218.7,254.9z"/>
	<path class="st2" d="M126.8,347.8c-2.4,1.2-2.1,2.8-0.3,4c2.9,1.9,2.9,4.4,2.4,7.3c-1.1,6.1-2.2,12.2-3.4,18.3
		c-0.2,1-0.7,1.9,0.6,2.3c5.2,1.8,4.3,6.5,4.3,10.3c0,6.7-0.1,6.9,6.6,7.2c2.1,0.1,5.3-1.3,5.2,2.9c0.7,1.8-1.2,2-1.9,2.9
		c-4.7,3.2-5.6,8.8-8.4,13.2c-0.7,1.2-0.3,2.4,0.8,3.4c1,0.9,0.9,2-0.3,2.8c-2.3-0.5-3.1,2.6-5.6,2.2c2.6-9.3,5-18.6,14.4-25.6
		c-5,0.2-8.4,0.3-11.7,0.5c-2.1,0.2-2.9-0.4-2.7-2.6c0.2-2.7,0-5.5,0.1-8.2c0.1-3.3,1.3-6.7-3.9-7.5c-2.2-0.3-0.9-2.7-0.6-4.1
		c1.6-6.7,3.8-13.2,4-20.2c0.1-2.3-0.8-3.7-2.6-3.8c-3.7-0.3-2.3-2.6-1.4-3.8c5.1-6.5,4.9-13.8,4.5-21.4c-0.5-7.5,0.8-15,1.6-22.4
		c0.5-4.6,0.5-9.5,0.5-14.2c0-3.6,1.5-5.2,4.5-6.1c1.6-0.5,4.1-0.9,3.4-3.1c-1-2.9,1.7-7.3-3.2-8.6c-3.2-0.9-4.2-2.8-3.7-6
		c0.3-2.5-0.2-5.2,0.1-7.7c0.6-4.5-0.8-7.8-4.6-10.1c-2-1.2-2.3-3-2.4-5.3c-0.3-6.1,0.4-12.4-3.8-17.9c-2-2.7-1.5-6.5,0.2-9.7
		c2.2-4.2,3.5-8.6,3.1-13.3c-0.2-2,0-3.6,2-4.4c3.5-1.4,3.6-4.1,3.1-7.1c-0.9-5.3-0.3-10.7-1.2-15.9c-0.9-5.4,1.6-6.7,5.9-7.2
		c2.1,2.4-0.4,3.2-1.7,3.7c-2.1,0.8-2.5,2.3-1.8,3.8c2.6,6.1,2.2,12.4,1.2,18.6c-0.3,1.7,1.1,2.6,1.1,4.4c-4.7,0-5.4,2.7-5.3,6.9
		c0.1,2.6-0.4,5.8-2.4,8.2c-2.2,2.7-2.5,6.1-2.3,9.5c0.2,2.8,1.8,2.2,5,0.4c-2.8,3.1-2.6,4.8-1.3,7.3c2,3.8,0.7,8.4,0.9,12.7
		c0.1,1.4-0.3,2.8,1.9,1.9l0,0c0.4,1.9-0.3,4.9,3.6,3.4c1.1-0.4,0.8,0.8,0.7,1.6c-0.6,3.7,1.8,1.1,3.2,1.5
		c-4.3,4.7-1.7,10.3-2.3,15.5c-0.2,2,1.7,2.8,3.6,3.3c2.6,0.6,3.8,2.1,2.9,4.9c-0.7,2.1-0.3,3.8,2.4,4c1.7,0.1,0.5,1.1,0.5,1.7
		c-0.4,1.5-1.9,2-2.9,2.9c-0.1,0.1-0.2,0.2-0.3,0.4c-1.4,2.5-6.9,0.1-6.2,5.5c0.4,3-2.9,5.7-0.8,9.5c1.1,2-0.2,5.2-0.4,7.9
		c-3.6,3-1,7.1-1.3,10.5c-0.3,3.1-0.3,6.5-0.3,9.8c0,2.7,2,5.4-0.3,8.1c-0.5,0.6-0.1,1.9,1,2.4c2.9,1.3,0.8,2-0.3,2.7
		C128.2,343.1,126.3,344.8,126.8,347.8L126.8,347.8z"/>
	<path class="st3" d="M99.6,455.2c1.1,5.1,5.3,7.8,12,7.6c-3.4-1.8-1.3-3.3,0.2-5c2.3,7.2,10.1,3.5,14.2,7.4
		c-1.2,1.6-3.6,0.3-5.1,2.5c1.9,0.2,3.6,0.4,5.2,0.6c-5.7,2.3-11.7,4-14.8,10.1c-1.5,1.9-2.9,3.7,0,5.6c0.6,0.4,0.6,1.4,0,2.1
		c-0.4,0.1-0.9,0.1-1.3,0.2c-3.1,0.5-5.9-1.4-8.4-1.3c5.5-6.3,11.3-12.8,16.9-19.2c-4,0-8.7-0.2-13,2.9c-4.1,3.1-8.5,3.5-13,0.5
		c0-0.1,0-0.4,0.1-0.5c2.1-2.2,5.7-4.2,5.9-6.5c0.2-2.6-4.9-2.5-6.7-5.3C94.1,455.2,97.4,457.4,99.6,455.2z"/>
	<path class="st4" d="M439.3,408.6c-3.2,1.3-3.4,4.2-3.8,7c-2.2,2.2-3.7,5.3-7.4,5.3c-1-0.6-0.7-1.5-0.5-2.4
		c0.1-0.4,0.3-0.8,0.5-1.2c0.7-1,1.3-2.2,1.9-3.3c1.3-1.9,3.5-3.2,4-5.7c0.2-2.6,0.8-5.2-1.7-7.1c-0.5-0.4-1-0.9-1.3-1.5
		c-0.1-0.4-0.2-0.9-0.2-1.3c0.1-0.4,0.4-0.8,0.7-1.1c3.6,0.8,5.1,3.5,5.8,6.8C437.8,405.6,437.8,407.4,439.3,408.6z"/>
	<path class="st5" d="M431.6,397.2c0,0.4,0,0.7-0.1,1.1c-4.3,0.7-7.8,4.7-12.6,2.8c-5.9-3-8.4-2.1-10.9,3.6c-0.5,1.2-0.5,3-2.3,3.2
		l-0.2-0.2l0.1-0.3c-0.9-1.5-0.7-3.1-0.1-4.6c1.9-5.8,6.6-8.2,11.8-5.6c2.8,1.4,5,1.6,7.5-0.1C426.9,395.8,429.3,395.9,431.6,397.2z
		"/>
	<path class="st6" d="M130.5,427.7c-0.4,0.4-0.9,1.3-1.2,1.2c-6.2-1.6-12.9,0.3-18.9-2.5C117.1,426.8,123.8,427.3,130.5,427.7z"/>
	<path class="st7" d="M393.8,412.5c1.5-1.3,3.2-0.9,5-0.6c-0.3,1.2-1.1,1.6-2,1.8C396.4,411.9,394.4,413.9,393.8,412.5z"/>
	<path class="st6" d="M99.7,434.1c1.3,1.9,1,4,0.8,6.1C99.6,438.2,98.7,436.3,99.7,434.1z"/>
	<path class="st8" d="M405.4,402.9c0,1.5,0.1,3.1,0.1,4.6c-1.1,0.3-2.1,0.2-3.1-0.5C405,406.7,404.1,404,405.4,402.9z"/>
	<path class="st9" d="M218.7,254.9c1.8,2.8,5.8,4.4,4.8,8.7c-4.4-0.3-4.4-0.3-3.7-4.4c0.2-1.3-1.2-1.6-2-2.3
		C216.4,255.5,217.4,255.2,218.7,254.9z"/>
	<path class="st10" d="M111.3,486.2c-0.4-2.6-2.6-3.1-4.9-4.3c1.9-1.3,3.4-2.4,5-3.5C111.1,481,115.9,483.6,111.3,486.2z"/>
	<path class="st6" d="M105.5,434.9c-0.2-2.7,4-2.5,3.6-5.3c0,0,0.8-0.4,1.2-0.3c0.7,0.2,0.8,0.8,0.6,1.5
		C110.4,434,108.2,434.8,105.5,434.9L105.5,434.9z"/>
	<path class="st6" d="M105.5,434.9c-1.9,4.8-1.9,4.8,1,6.1c-0.3,1-1.3,0.5-1.8,0.8c-0.5,0.3-1.1,0.6-1.6,0.9
		C101.5,440.6,103,436.3,105.5,434.9C105.5,434.9,105.5,434.9,105.5,434.9z"/>
	<path class="st11" d="M149,505.6c-0.2-3.5,2.6-5,4.8-6.8C153.6,502,150.3,503,149,505.6z"/>
	<path class="st12" d="M195.5,219.1c0.9,1.5,2.3,2.8,1.9,4.8C194.9,223.1,194.5,221.4,195.5,219.1z"/>
	<path class="st13" d="M140.3,403c0.6-1,1.3-1.9,1.9-2.9c0.7-0.1,2.1-1.1,1.4,0.8C143.2,402.1,141.9,403,140.3,403z"/>
	<path class="st14" d="M139.3,284.9c0.6-1.3,1.6-2.3,2.9-2.9C143.3,285,140.6,284.3,139.3,284.9z"/>
	<path class="st2" d="M127.7,246.2c0.2-1-0.5-2.4,1.2-2.5c0.3,0,1,0.5,1,0.8C130.1,246.1,128.8,246.1,127.7,246.2
		C127.7,246.2,127.7,246.2,127.7,246.2z"/>
	<path class="st2" d="M126.8,347.8c1-0.3,2-1.4,3-0.1c0.1,0.2,0.1,0.7,0,0.8C128.6,349,127.6,348.9,126.8,347.8L126.8,347.8z"/>
	<path class="st2" d="M131.6,307.6c1.1,2,2.3,2.9,1.6,4.6C131.6,311.2,131.6,309.6,131.6,307.6z"/>
	<path d="M233.4,307.5c0.2,0.7,0.4,1.5-0.6,1.3c-0.4-0.1-0.9-0.7-0.9-0.9c0.1-0.5,0.5-1.3,0.9-1.4
		C233.9,306.2,232.7,307.5,233.4,307.5z"/>
	<path d="M369.9,412.4c0.8-0.3,1.3-0.6,1.5-0.5c0.5,0.3,1,0.8,1.1,1.3c0.2,1-0.7,0.3-0.8,0.3C371.1,413.3,370.7,412.9,369.9,412.4z"
		/>
	<path class="st2" d="M131.7,191.5c1.2,1.4,0.7,2.4,0.8,3.8C131.1,193.9,131.8,192.9,131.7,191.5z"/>
	<path class="st0" d="M427.7,420.5c3.4-0.4,4.3-4.7,7.8-5c15,6.6,21.5,19.4,25.1,34.3c0.3,1.1,0.4,2.2,0.7,3.3
		c0.5,2.1,0.3,3.2-2.4,3.2c-24.8-0.1-49.6-0.1-74.3,0c-2.3,0-2.8-0.8-2.4-2.8c3-16.4,9.5-30.3,25.4-38c2.6-2.7,4,0.1,5.2,1.4
		c3.4,3.8,7.5,5,12.4,3.8C426,420.5,426.8,420.3,427.7,420.5z"/>
	<path class="st15" d="M131,563c-0.1-1.2,0.4-2.7,1.4-3.2c3.9-2,4.9-7.2,9.5-8.3c0.7-0.2,1.4-0.9,1-1.4c-3-4.7,3.1-7.7,2.1-12
		c-0.1-0.6,1.2-1.7,1.6-0.8c0.9,1.9,4.4,1.8,3.6,4.5c-2,6.3-1.1,12.7-1.1,19.1c0,2.8-0.7,5.5-2.2,7.8c-2.3,3.6-3.8,7.4-4.4,11.5
		c-0.4,2.8-2,2.7-3.6,1.9c-3.9-2.1-7.6-4.4-7.3-9.8C131.7,569.3,132.1,566.2,131,563z"/>
	<path class="st16" d="M405.6,408c1-0.9,0.9-2.3,1.2-3.5c1.6-6.5,6.3-8.2,12.1-4.5c0.6,2.3,3.6,1.4,4.4,3.4
		c-0.1,2.4-1.6,2.4-3.3,1.9c-1.1-0.3-1.9-1.2-2.7-1.9c-1.8-1.6-3.8-2.7-5.9-0.9c-2.2,1.9-2.2,4.5-0.7,6.5c3,4.1,6,8.4,11.7,9.2
		c0.9,0.1,1.9,0.4,2.5,1.2c-1.3,4.5-4.7,2.5-6.9,1.6c-4.8-2-8.2-5.8-10.7-10.4C406.7,409.8,406.2,408.9,405.6,408z"/>
	<path class="st17" d="M407.3,410.7c3.6,3.1,6,7.5,10.5,9.7c2.6,1.2,5.1,2.1,7.1-0.8c0.2-0.1,0.3-0.2,0.5-0.3
		c0.4,0.1,0.7,0.3,0.9,0.7c0.2,0.6,0,1.1-0.5,1.6c-4.9,2.5-8.9,1.1-12.7-2.4c-1.6-1.5-2.5-4.4-5.6-3.5
		C408.4,413.9,404.9,412.4,407.3,410.7z"/>
	<path class="st18" d="M151.9,523c0,2.3,0,4.5,0,6.8c0,1.2-0.4,2.4-1.8,2.5c-0.9,0.1-1.5-0.9-1.6-1.6c-0.4-2.9,1.4,0.1,1.9-0.6
		c0.6-1,0.5-1.7-0.4-2.8c-1.3-1.7-3.1-4.1,0.9-5.2C151.5,522.1,151.6,522.6,151.9,523z"/>
	<path class="st1" d="M151.9,523c-0.3-0.3-0.6-0.6-1-1c0-0.6,0-1.3,0-1.9c0,0,0,0,0,0c0.8-0.5,1.6-0.9,2.5-1.5
		C153.8,520.5,152.3,521.6,151.9,523z"/>
	<path class="st1" d="M100.2,464.7c-0.6,1.4,0.2,3.5-2.1,3.9c-0.3,0-0.9-0.6-0.9-0.8C97.4,466.1,98.8,465.4,100.2,464.7z"/>
	<path class="st1" d="M106.5,465.4c-1.2,0.9-2.2,2.3-3.7,1.3c-0.2-0.2-0.3-1.1,0-1.3C103.9,463.8,105.2,465.3,106.5,465.4z"/>
	<path class="st19" d="M424.9,419.5c-8,0.9-11.7-4.9-15.6-10.1c-2-2.6-1.6-5.8,1.3-8.1c3-2.4,5.2-1,7.5,1.2c1.2,1.1,2.7,4.6,4.7,0.5
		c1.2-5,5.3-3.6,8.6-3.8c0.4,0.3,0.7,0.6,1.1,1c2.6,2.3,2.3,5.6,2.6,8.6c-0.2,3-2.7,4.2-4.7,5.8c-0.9,1.1-1.9,1.9-2.6,3.2
		C427.2,418.9,425.7,418.6,424.9,419.5L424.9,419.5z"/>
	<path class="st20" d="M431.5,399.2c-2.7,1.7-7-0.3-8.6,3.8c-1.9-0.2-4.2,0.1-3.9-2.9c1.4,0.5,2.7,1.5,4.2,0.1
		c2.4-2.2,5.4-2.3,8.4-1.8C431.6,398.6,431.6,398.9,431.5,399.2z"/>
	<path class="st21" d="M435.2,408.8c-0.9-2.9-1.7-5.7-2.6-8.6C436.9,402,435.8,405.5,435.2,408.8z"/>
	<path class="st22" d="M427.8,417.5c0-1.8,1-2.7,2.7-2.9c0.3,1.6-0.6,2.4-1.9,2.9C428.3,417.8,428,417.8,427.8,417.5z"/>
	<path class="st23" d="M425.8,421.4c0-0.6,0-1.2,0-1.7c0.4-1.4,1.3-1.8,2.7-1.4c-0.3,0.8-0.5,1.5-0.8,2.3
		C427.3,421.2,426.6,421.4,425.8,421.4z"/>
	<path class="st24" d="M428.5,418.2c-0.9,0.5-1.8,1-2.7,1.4c-0.3,0-0.7-0.1-1-0.1c0.5-1.4,1.5-2,3-2c0.3,0,0.5,0,0.8,0
		C428.6,417.7,428.6,418,428.5,418.2z"/>
</g>
</svg>
